HIERARCHY
ROOT Hips
{
     OFFSET 1.88212 96.90440 -13.34250
     CHANNELS 6 Xposition Yposition Zposition Zrotation Xrotation Yrotation
     JOINT Spine
     {
          OFFSET 0.00000 11.89050 0.00000
          CHANNELS 3 Zrotation Xrotation Yrotation
          JOINT Spine1
          {
               OFFSET -0.00000 25.65740 0.12766
               CHANNELS 3 Zrotation Xrotation Yrotation
               JOINT HEad
               {
                    OFFSET 0.00000 8.73416 0.01134
                    CHANNELS 3 Zrotation Xrotation Yrotation
                    End Site
                    {
                         OFFSET -0.29000 12.77420 2.51395
                    }
               }
               JOINT LeftShoulder1
               {
                    OFFSET 8.99000 -0.36225 -0.22000
                    CHANNELS 3 Zrotation Xrotation Yrotation
                    JOINT LeftArm
                    {
                         OFFSET 10.28270 -0.00338 0.32212
                         CHANNELS 3 Zrotation Xrotation Yrotation
                         JOINT LeftForeArm
                         {
                              OFFSET 32.76690 0.09914 -1.42434
                              CHANNELS 3 Zrotation Xrotation Yrotation
                              JOINT LeftHand
                              {
                                   OFFSET 27.56430 0.08536 1.02216
                                   CHANNELS 3 Zrotation Xrotation Yrotation
                                   End Site
                                   {
                                        OFFSET 16.74430 -0.60000 1.50291
                                   }
                              }
                         }
                    }
               }
               JOINT RightShoulder
               {
                    OFFSET -8.99000 -0.36225 -0.22000
                    CHANNELS 3 Zrotation Xrotation Yrotation
                    JOINT RightArm
                    {
                         OFFSET -10.28270 -0.00338 0.32212
                         CHANNELS 3 Zrotation Xrotation Yrotation
                         JOINT RightForeArm
                         {
                              OFFSET -32.89710 0.09914 -1.42434
                              CHANNELS 3 Zrotation Xrotation Yrotation
                              JOINT RightHand
                              {
                                   OFFSET -27.49210 0.08536 1.02216
                                   CHANNELS 3 Zrotation Xrotation Yrotation
                                   End Site
                                   {
                                        OFFSET -16.63120 -0.60000 1.50291
                                   }
                              }
                         }
                    }
               }
          }
     }
     JOINT LeftUpLeg
     {
          OFFSET 8.94580 -8.66707 0.10165
          CHANNELS 3 Zrotation Xrotation Yrotation
          JOINT LeftLeg
          {
               OFFSET 0.00000 -44.42270 1.37270
               CHANNELS 3 Zrotation Xrotation Yrotation
               JOINT LeftFoot
               {
                    OFFSET -0.25355 -42.09240 -1.46059
                    CHANNELS 3 Zrotation Xrotation Yrotation
                    JOINT LeftToes
                    {
                         OFFSET -0.04000 -4.41509 8.49910
                         CHANNELS 3 Zrotation Xrotation Yrotation
                         End Site
                         {
                              OFFSET 0.08000 -0.04745 9.77979
                         }
                    }
               }
          }
     }
     JOINT RightUpLeg
     {
          OFFSET -8.94580 -8.66707 0.10165
          CHANNELS 3 Zrotation Xrotation Yrotation
          JOINT RightLeg
          {
               OFFSET 0.00000 -44.42270 1.37270
               CHANNELS 3 Zrotation Xrotation Yrotation
               JOINT RightFoot
               {
                    OFFSET 0.25355 -42.09240 -1.46059
                    CHANNELS 3 Zrotation Xrotation Yrotation
                    JOINT RightToes
                    {
                         OFFSET 0.04000 -4.41509 8.49910
                         CHANNELS 3 Zrotation Xrotation Yrotation
                         End Site
                         {
                              OFFSET -0.08000 -0.13745 9.77979
                         }
                    }
               }
          }
     }
}
MOTION
Frames: 12
Frame Time: 0.01667
60.36595 91.39343 -19.70684 4.49290 13.14346 165.63394 1.25781 22.70532 -38.72763 -0.01187 0.00448 0.08379 7.11306 9.35507 13.83216 -11.23891 0.84112 60.79732 -103.54917 -31.40004 -86.49622 -64.93711 62.76830 -64.34460 26.38280 9.04411 -21.39220 -8.86289 0.15107 51.64861 112.96339 -42.89183 79.05827 -5.19447 41.11996 127.56547 48.67406 11.65950 -41.36576 5.81490 -13.39704 -41.99235 -11.45590 2.89892 73.16486 25.07515 -0.10613 0.02735 -22.11840 1.99885 -74.51212 -30.16675 12.00538 1.24213 52.43722 48.91440 -27.29696 -28.29044 0.00220 -0.02582 5.98509 -44.90073 4.93508 
60.54776 90.81069 -19.41400 2.48269 14.83453 172.32178 1.76442 24.66810 -39.77986 -0.01357 0.00432 0.06901 6.92475 6.93851 12.52763 -10.74935 1.29154 57.25240 -107.05415 -40.11653 -87.59264 -60.77599 61.54139 -69.27409 17.45205 -2.69115 -18.13783 -14.16249 -7.48716 55.73263 115.81742 -44.72596 84.33232 -20.00770 32.96347 120.74020 47.29744 10.79079 -46.73375 2.37801 -13.10556 -44.53970 -11.74343 2.65332 72.10845 28.69851 -0.08506 0.03162 -24.71435 2.40319 -76.16485 -29.42522 14.10946 0.66985 54.47198 47.47591 -32.19587 -27.62092 0.00547 -0.01950 5.32287 -45.87735 5.22401 
60.77727 90.19213 -19.05253 0.60640 16.17391 178.08514 2.28754 26.38738 -38.80172 -0.01480 0.00361 0.05759 6.72806 4.68516 9.77877 -10.19188 2.07127 52.68473 -109.45343 -45.09828 -88.20568 -59.96719 61.34161 -71.45689 28.07580 10.87361 -17.76952 -19.84215 -14.87570 57.94191 117.06212 -46.83993 87.79670 -32.53879 28.64923 107.36491 36.55693 -10.39942 -39.24867 -0.36226 -12.88362 -45.12022 -12.47828 2.88552 69.88577 32.06955 -0.06542 0.03290 -27.12688 2.55566 -77.45892 -28.64365 15.84156 0.49816 55.98568 45.88476 -37.05259 -27.19986 0.01136 -0.01350 5.24021 -46.87781 5.29549 
61.07516 89.54479 -18.65214 -1.08131 17.23521 182.97786 2.69910 27.88530 -35.97748 -0.01513 0.00400 0.04800 6.49648 2.66303 5.74659 -9.51980 3.05463 47.13353 -110.76119 -47.70049 -88.30387 -60.54237 61.63398 -72.18910 21.85131 2.85369 -16.30988 -26.40495 -21.57802 58.26997 117.05422 -48.93178 89.42484 -38.60196 28.97602 87.86862 35.07491 2.60344 -25.54838 -2.42884 -12.83497 -43.92019 -13.57670 3.67336 66.64645 35.11060 -0.04794 0.03204 -29.35953 2.48205 -78.43596 -27.86884 17.25854 0.67879 57.14299 44.30588 -41.74836 -26.66560 0.01238 -0.00727 5.72420 -47.89729 6.60656 
61.45052 88.87827 -18.24715 -2.54840 18.07561 187.08200 2.86316 29.20680 -31.47234 -0.02357 0.00694 0.04044 6.31233 0.90390 0.58026 -8.68343 4.12665 40.60485 -111.16532 -48.78431 -88.05128 -61.49354 62.02727 -72.16893 24.08388 5.10645 -17.55115 -28.98052 -18.51069 50.58774 104.51629 -42.33736 87.43990 -36.03955 28.46823 64.23079 36.84970 -20.76187 -24.07831 -3.85756 -13.01190 -41.14565 -14.91704 5.08296 62.54384 37.78755 -0.03354 0.03008 -31.40844 2.20920 -79.11483 -27.11055 18.40998 1.14518 58.07381 42.80795 -46.15487 -26.24479 0.01129 -0.00212 6.67627 -48.92423 8.09313 
61.90620 88.20867 -17.87040 -3.78075 18.73951 190.48494 2.67723 30.36619 -25.44744 -0.02761 0.01022 0.03282 6.22832 -0.60383 -5.56298 -7.60976 5.28908 33.00118 -111.09742 -48.92317 -87.74689 -62.30331 62.46608 -71.74107 21.06283 1.50587 -16.55188 -30.91461 -14.32462 42.25778 92.71978 -35.41257 87.34081 -30.61623 21.35073 41.02979 28.15206 -3.60405 -18.90289 -4.69300 -13.42332 -36.99212 -16.35038 7.15111 57.72402 40.10714 -0.02241 0.02770 -33.24792 1.75934 -79.55303 -26.35974 19.33619 1.82976 58.86816 41.40161 -50.15361 -25.86235 0.00949 0.00232 7.94500 -49.90125 9.98054 
62.44650 87.55761 -17.55432 -4.78021 19.25958 193.26216 2.02729 31.38002 -18.04587 -0.03195 0.01879 0.02824 6.32247 -1.94341 -12.51706 -6.15242 6.50296 24.31192 -110.91666 -48.48460 -87.64823 -62.79501 62.84856 -71.05218 22.47876 3.43284 -17.03292 -31.59549 -8.99220 33.44664 80.38391 -29.06292 87.66396 -30.09004 11.91437 24.18668 32.63003 -2.44010 -17.62925 -4.97631 -14.04954 -31.62141 -17.71588 9.88137 52.30869 42.09706 -0.01408 0.02516 -34.84598 1.14336 -79.80881 -25.60747 20.06867 2.67555 59.57203 40.08394 -53.66171 -25.57101 0.00776 0.00515 9.43061 -50.82896 11.95099 
63.06664 86.95563 -17.33704 -5.56225 19.65935 195.46756 0.73110 32.26297 -9.45682 -0.04290 0.03235 0.01852 6.71505 -3.23207 -20.00734 -4.06760 7.64052 14.67685 -110.89615 -47.67999 -87.89234 -63.00897 63.17613 -70.02283 21.00102 1.47812 -16.47595 -30.77075 -3.11343 24.21239 72.41125 -25.07536 88.57563 -31.55666 4.79424 15.07282 15.06332 7.39902 2.46621 -4.99521 -14.56812 -26.32168 -18.66220 12.71992 47.38800 43.77390 -0.00834 0.02122 -36.17982 0.41331 -79.95064 -24.85167 20.63694 3.64153 60.20271 38.84431 -56.64883 -25.31640 0.00721 0.00673 11.00434 -51.69367 14.03042 
63.75176 86.43160 -17.24766 -6.14868 19.95409 197.13939 -1.46311 33.10566 -0.22356 -0.06001 0.05895 -0.01155 7.59733 -4.70829 -27.33757 -1.14124 8.30391 4.73569 -111.17380 -46.63231 -88.50079 -63.08958 63.38918 -68.56734 22.02395 2.51572 -16.84661 -28.03265 2.41946 14.76111 70.61039 -23.45767 87.07285 -31.43279 -1.49043 20.17806 11.37903 12.02187 13.01667 -4.79770 -15.01993 -21.15897 -19.17464 15.54560 42.94518 45.12836 -0.00456 0.01631 -37.24586 -0.40270 -80.04282 -24.11427 21.06705 4.70049 60.76911 37.67481 -59.12043 -25.06321 0.00760 0.00731 12.57945 -52.44813 16.11038 
64.45505 86.00380 -17.30600 -6.54163 20.14905 198.30154 -3.48974 33.11643 7.69153 0.00079 0.00486 -0.08768 8.12972 -5.46123 -33.24053 1.52892 9.14673 -3.74706 -111.60647 -41.61711 -87.60255 -57.67645 64.60148 -69.04263 21.18795 1.26312 -16.68808 -24.35449 7.29963 6.43012 73.27525 -23.54606 85.25638 -27.62461 -5.27356 33.66665 16.03234 12.18707 -4.07119 -4.40922 -15.43876 -16.19140 -19.26629 18.25788 38.95112 46.14551 -0.00193 0.01113 -38.05367 -1.29656 -80.13667 -23.41828 21.36959 5.82733 61.28135 36.57488 -61.09455 -24.74207 0.00839 0.00756 14.03136 -52.97535 18.10664 
65.12376 85.68641 -17.50750 -6.73313 20.24965 198.96848 -5.94398 33.42933 13.58457 -0.02661 0.08509 -0.15260 9.12647 -6.68447 -36.60524 4.23228 8.96852 -10.11956 -112.20098 -38.58686 -87.75298 -64.99091 62.99842 -60.99959 21.78100 6.76031 -17.20897 -10.21142 14.38717 -7.55822 72.57142 -21.06315 90.82555 -19.32100 -5.51208 50.82300 9.64761 7.76137 11.65126 -3.85176 -15.84583 -11.47443 -18.97895 20.78241 35.38495 46.82000 0.00006 0.00626 -38.61369 -2.26287 -80.25964 -22.78906 21.54216 7.00267 61.75317 35.55603 -62.59309 -24.30776 0.00920 0.00779 15.21934 -53.12486 19.84938 
65.71519 85.48467 -17.82994 -5.71494 19.77129 197.03732 -8.68608 32.86427 19.18022 0.00516 0.05963 -0.15903 10.05902 -7.84908 -37.59387 6.40784 8.49102 -14.40820 -112.97537 -36.85793 -88.51852 -68.62387 61.47065 -56.32924 20.96617 8.65643 -17.23529 -5.95759 13.99122 -11.87389 80.15264 -22.77349 88.42496 -7.30213 -1.54028 67.39626 24.75495 4.21206 5.17148 -1.86956 -17.06071 -5.24266 -18.38924 23.07556 32.23703 47.15005 0.00153 0.00224 -38.94056 -3.32352 -80.42156 -21.99927 20.12511 9.65118 62.24920 34.64579 -63.74758 -23.77680 0.01024 0.00782 15.98965 -52.78510 21.16000 
